<svg aria-hidden="true" style="position: absolute; width: 0; height: 0; overflow: hidden;" version="1.1" xmlns="http://www.w3.org/2000/svg" xmlns:xlink="http://www.w3.org/1999/xlink">
<defs>
<symbol id="icon-decore-1" viewBox="0 0 8 32">
<path d="M4.296 17.44c-0.121-0.174-0.232-0.331-0.337-0.474-0.099-0.136-0.214-0.29-0.336-0.45-0.006-0.008-0.011-0.016-0.017-0.023-0.408-0.537-0.813-1.081-1.086-1.684-0.010-0.018-0.018-0.037-0.027-0.056-0.168-0.312-0.452-0.412-0.716-0.505-0.068-0.024-0.136-0.048-0.2-0.073-0.395-0.159-0.775-0.449-1.015-0.824-0.213-0.333-0.319-0.732-0.236-1.165 0.016-0.081 0.037-0.158 0.065-0.231 0.102-0.269 0.281-0.476 0.505-0.603 0.225-0.127 0.493-0.174 0.773-0.12 0.073 0.014 0.147 0.035 0.221 0.063 0.406 0.154 0.675 0.457 0.834 0.819 0.181 0.413 0.215 0.904 0.14 1.33-0.007 0.036-0.017 0.091-0.027 0.147-0.058 0.301-0.118 0.617 0.051 0.98 0.007 0.014 0.014 0.029 0.021 0.043 0.003 0.005 0.005 0.010 0.007 0.015 0.015 0.034 0.031 0.067 0.047 0.101-0.14-1.72 0.803-3.647 1.619-5.009 0.625-1.333 0.249-2.343-0.373-3.286-0.121-0.174-0.232-0.331-0.337-0.474-0.099-0.136-0.214-0.29-0.336-0.45-0.003-0.004-0.007-0.009-0.009-0.014-0.41-0.541-0.819-1.087-1.094-1.694-0.010-0.018-0.018-0.038-0.027-0.056-0.168-0.312-0.452-0.412-0.716-0.504-0.068-0.024-0.136-0.048-0.2-0.073-0.395-0.159-0.775-0.449-1.015-0.824-0.213-0.333-0.319-0.732-0.236-1.165 0.016-0.081 0.038-0.158 0.065-0.231 0.102-0.269 0.281-0.476 0.505-0.603 0.225-0.128 0.493-0.174 0.773-0.12 0.073 0.014 0.147 0.035 0.221 0.063 0.406 0.154 0.675 0.457 0.834 0.819 0.181 0.413 0.215 0.904 0.14 1.33-0.007 0.036-0.017 0.091-0.027 0.147-0.058 0.301-0.118 0.617 0.051 0.98 0.007 0.014 0.014 0.029 0.021 0.043 0.003 0.005 0.005 0.010 0.007 0.015 0.257 0.568 0.648 1.092 1.043 1.612 0.004 0.004 0.007 0.009 0.011 0.014 0.032 0.042 0.065 0.086 0.1 0.133 0.728 0.959 1.425 1.916 1.362 3.142l0.009-0.014c0.086-0.13 0.161-0.242 0.204-0.309 0.011-0.020 0.022-0.039 0.034-0.057 0.173-0.313 0.1-0.607 0.033-0.88-0.018-0.074-0.036-0.148-0.048-0.207-0.084-0.417-0.048-0.894 0.136-1.301 0.162-0.361 0.438-0.667 0.847-0.835 0.079-0.032 0.155-0.056 0.23-0.073 0.28-0.061 0.551-0.025 0.78 0.093s0.415 0.318 0.523 0.581c0.029 0.071 0.052 0.145 0.069 0.22 0.093 0.423-0.014 0.813-0.23 1.144-0.247 0.377-0.64 0.674-1.039 0.845-0.016 0.007-0.077 0.032-0.138 0.057-0.282 0.116-0.577 0.237-0.788 0.572-0.011 0.019-0.022 0.038-0.034 0.057-0.003 0.005-0.006 0.010-0.010 0.015-0.066 0.104-0.131 0.201-0.206 0.315-0.198 0.298-0.467 0.703-0.752 1.177-0.006 0.013-0.012 0.026-0.018 0.039-0.010 0.020-0.022 0.039-0.037 0.054-1.055 1.778-2.278 4.467-0.938 6.235 0.032 0.042 0.065 0.086 0.1 0.133 0.719 0.948 1.409 1.893 1.364 3.098l0.018-0.029c0.028-0.043 0.053-0.082 0.105-0.163 0.011-0.020 0.022-0.039 0.034-0.058 0.173-0.313 0.1-0.607 0.033-0.88-0.018-0.074-0.036-0.148-0.048-0.207-0.084-0.417-0.048-0.894 0.136-1.301 0.162-0.361 0.438-0.667 0.846-0.834 0.079-0.032 0.155-0.056 0.23-0.073 0.28-0.061 0.551-0.025 0.78 0.093s0.415 0.318 0.523 0.581c0.029 0.071 0.052 0.145 0.069 0.22 0.093 0.423-0.014 0.813-0.23 1.144-0.247 0.377-0.64 0.674-1.039 0.845-0.016 0.007-0.077 0.032-0.138 0.057-0.282 0.116-0.577 0.237-0.788 0.572-0.011 0.019-0.022 0.038-0.034 0.057-0.003 0.005-0.007 0.010-0.010 0.015-0.017 0.027-0.060 0.092-0.106 0.164-0.194 0.3-0.481 0.744-0.782 1.279l-0 0c-0.004 0.009-0.009 0.017-0.014 0.025-0.962 1.709-2.068 4.337-0.861 6.249 0.077 0.122 0.173 0.233 0.28 0.347 0.207 0.208 0.404 0.417 0.576 0.642 0.005 0.007 0.011 0.014 0.016 0.021 0.053 0.070 0.103 0.142 0.15 0.215 0.206 0.32 0.353 0.672 0.398 1.085 0.045 0.407-0.009 0.869-0.2 1.413-0.013 0.036-0.027 0.080-0.041 0.125-0.042 0.135-0.089 0.283-0.156 0.39-0.072 0.115-0.175 0.22-0.326 0.273-0.142 0.050-0.316 0.048-0.526-0.046-0.012-0.005-0.023-0.011-0.034-0.017-0.061-0.039-0.113-0.078-0.156-0.118-0.168-0.156-0.22-0.324-0.22-0.469s0.055-0.263 0.095-0.327c0.017-0.027 0.035-0.049 0.046-0.062 0.371-0.4 0.621-0.823 0.722-1.223 0.092-0.363 0.061-0.708-0.114-0.997-0.037-0.049-0.076-0.097-0.116-0.145-0.103-0.12-0.205-0.226-0.301-0.327-0.043-0.045-0.085-0.088-0.126-0.132-0.073-0.073-0.147-0.145-0.221-0.219-0.512-0.505-1.049-1.033-1.382-1.772-0.010-0.019-0.018-0.038-0.027-0.056-0.168-0.312-0.452-0.412-0.716-0.505-0.068-0.024-0.136-0.048-0.2-0.073-0.395-0.159-0.775-0.449-1.015-0.824-0.213-0.333-0.319-0.732-0.236-1.165 0.016-0.081 0.037-0.158 0.065-0.231 0.102-0.269 0.281-0.476 0.505-0.603 0.225-0.127 0.493-0.174 0.773-0.12 0.073 0.014 0.147 0.035 0.221 0.063 0.406 0.154 0.675 0.457 0.834 0.819 0.181 0.413 0.215 0.904 0.14 1.33-0.007 0.036-0.017 0.091-0.027 0.147-0.058 0.301-0.118 0.617 0.051 0.98 0.007 0.014 0.014 0.029 0.021 0.043 0.003 0.005 0.005 0.010 0.007 0.015 0.114 0.252 0.258 0.481 0.418 0.693-0.498-1.915 0.462-4.125 1.308-5.629l0.001-0.002c0.662-1.361 0.285-2.387-0.346-3.342l-0.001 0.001zM6.044 7.163c0.035 0.143 0.072 0.291 0.086 0.446 0.15-0.090 0.306-0.154 0.458-0.217 0.030-0.012 0.059-0.025 0.131-0.055 0.327-0.141 0.649-0.382 0.847-0.684 0.156-0.239 0.234-0.517 0.169-0.815-0.012-0.054-0.027-0.104-0.045-0.148-0.068-0.165-0.181-0.288-0.321-0.361s-0.31-0.094-0.49-0.054c-0.053 0.012-0.106 0.028-0.157 0.049-0.295 0.121-0.496 0.346-0.616 0.612-0.145 0.321-0.172 0.703-0.105 1.038 0.014 0.071 0.029 0.129 0.043 0.188l-0.002 0zM1.919 13.84c0.14 0.049 0.283 0.099 0.421 0.173 0.007-0.175 0.038-0.34 0.069-0.502 0.007-0.041 0.015-0.081 0.025-0.14 0.061-0.352 0.035-0.753-0.11-1.084-0.115-0.261-0.305-0.478-0.589-0.586-0.050-0.019-0.1-0.033-0.15-0.043-0.175-0.034-0.341-0.006-0.477 0.071-0.137 0.078-0.248 0.208-0.313 0.379-0.019 0.049-0.034 0.103-0.045 0.159-0.060 0.314 0.018 0.605 0.175 0.85 0.191 0.297 0.494 0.53 0.812 0.657 0.059 0.024 0.12 0.045 0.181 0.066zM1.832 2.836c0.14 0.049 0.283 0.099 0.421 0.173 0.007-0.175 0.038-0.34 0.069-0.502 0.007-0.041 0.015-0.081 0.025-0.14 0.061-0.352 0.035-0.753-0.11-1.084-0.115-0.261-0.305-0.478-0.589-0.586-0.050-0.019-0.1-0.033-0.15-0.043-0.175-0.034-0.341-0.006-0.477 0.071-0.137 0.078-0.248 0.208-0.313 0.379-0.019 0.049-0.034 0.103-0.045 0.16-0.060 0.314 0.018 0.605 0.175 0.85 0.191 0.297 0.494 0.53 0.812 0.656 0.059 0.024 0.12 0.045 0.181 0.066zM5.157 29.751c-0.138 0.422-0.404 0.853-0.779 1.256-0.012 0.020-0.029 0.054-0.029 0.096s0.019 0.093 0.082 0.152c0.022 0.021 0.049 0.041 0.080 0.062 0.091 0.040 0.154 0.044 0.199 0.028 0.041-0.014 0.074-0.051 0.1-0.093 0.038-0.061 0.076-0.181 0.11-0.29 0.016-0.049 0.030-0.097 0.046-0.141 0.145-0.41 0.2-0.762 0.189-1.071l0.001 0.001zM4.378 31.008l-0.003 0.003c-0.002 0.002 0.002-0.002 0.003-0.003zM1.919 24.931c0.14 0.049 0.283 0.099 0.421 0.173 0.007-0.175 0.038-0.34 0.069-0.502 0.007-0.041 0.015-0.081 0.025-0.14 0.061-0.352 0.035-0.753-0.11-1.084-0.115-0.261-0.305-0.478-0.589-0.586-0.050-0.019-0.1-0.033-0.15-0.043-0.175-0.034-0.341-0.006-0.477 0.071-0.137 0.078-0.248 0.208-0.313 0.379-0.019 0.049-0.034 0.103-0.045 0.16-0.060 0.314 0.018 0.605 0.175 0.85 0.191 0.297 0.494 0.529 0.812 0.657 0.059 0.024 0.12 0.045 0.181 0.066zM6.044 18.254c0.035 0.143 0.072 0.291 0.086 0.446 0.15-0.090 0.306-0.154 0.458-0.217 0.030-0.012 0.059-0.025 0.131-0.055 0.327-0.141 0.649-0.382 0.847-0.684 0.156-0.239 0.234-0.517 0.169-0.815-0.012-0.054-0.027-0.104-0.045-0.148-0.068-0.165-0.181-0.288-0.321-0.361s-0.31-0.094-0.49-0.054c-0.053 0.012-0.106 0.028-0.157 0.049-0.295 0.121-0.496 0.346-0.616 0.612-0.145 0.321-0.172 0.703-0.105 1.038 0.014 0.071 0.029 0.129 0.043 0.188l-0.002 0z"></path>
</symbol>
<symbol id="icon-decore-2" viewBox="0 0 123 32">
<path d="M1.587 31.272c-0.457 0-0.827-0.37-0.827-0.827s0.37-0.827 0.827-0.827h11.365c0.798-0.076 1.59-0.079 2.386-0.080 0.974-0.002 1.956-0.004 2.936-0.159 1.16-0.182 2.243-0.448 3.238-0.922-0.451-0.734-0.794-1.621-0.994-2.684-0.265-1.393 0.009-2.934 0.591-4.127 0.325-0.664 0.753-1.238 1.251-1.642 0.564-0.459 1.214-0.701 1.911-0.637 0.552 0.052 1.1 0.296 1.619 0.774 1.061 0.978 1.439 2.128 1.38 3.296-0.070 1.338-0.738 2.667-1.603 3.743-0.517 0.643-1.057 1.18-1.624 1.63 0.32 0.228 0.67 0.405 1.040 0.533 0.775 0.271 1.799 0.308 2.859 0.213 1.424-0.128 2.897-0.496 3.974-0.875 0.96-0.337 1.874-0.794 2.742-1.448-0.196-0.372-0.378-0.774-0.546-1.201-0.424-1.090-0.744-2.368-0.949-3.858-0.37-2.715 0.18-5.799 1.177-7.831 0.395-0.807 0.871-1.468 1.4-1.907 0.639-0.53 1.35-0.756 2.109-0.585 0.606 0.139 1.2 0.537 1.753 1.251 1.195 1.54 1.625 3.331 1.557 5.135-0.081 2.139-0.862 4.291-1.88 6.049-0.777 1.344-1.6 2.409-2.469 3.263 0.080 0.103 0.164 0.203 0.246 0.298 0.506 0.575 1.005 0.972 1.545 1.237 0.548 0.269 1.164 0.415 1.896 0.49 2.024 0.203 3.888-0.414 5.623-1.727 0.448-0.339 0.887-0.724 1.319-1.152-0.118-0.203-0.234-0.414-0.345-0.633-0.829-1.625-1.454-3.679-1.799-6.212-0.461-3.383 0.223-7.223 1.464-9.752 0.486-0.99 1.067-1.799 1.71-2.335 0.753-0.625 1.59-0.896 2.475-0.692 0.716 0.164 1.423 0.641 2.088 1.499 1.472 1.898 1.999 4.102 1.917 6.327-0.1 2.657-1.075 5.339-2.339 7.533-0.98 1.704-2.003 3.191-3.079 4.434 0.579 0.761 1.224 1.348 1.913 1.783 1.024 0.643 2.173 0.943 3.319 0.916 1.167-0.027 2.332-0.395 3.356-1.079 1.020-0.682 2.008-1.669 2.968-2.928-0.070-0.145-0.138-0.293-0.207-0.445-0.966-2.169-1.691-5.008-2.076-8.625-0.271-2.545-0.149-5.288 0.248-7.771 0.422-2.633 1.158-4.994 2.075-6.55 0.451-0.769 1-1.363 1.607-1.731 0.439-0.267 0.906-0.415 1.39-0.43 0.488-0.015 0.978 0.11 1.454 0.389 0.55 0.323 1.075 0.859 1.546 1.634 1.439 2.372 1.896 5.109 1.756 7.878-0.177 3.456-1.29 6.956-2.576 9.816-1.042 2.316-2.132 4.322-3.277 5.976 0.821 1.427 1.774 2.402 2.806 2.994 1.265 0.726 2.68 0.832 4.126 0.484 1.566-0.376 3.172-1.28 4.679-2.514-0.302-0.521-0.581-1.090-0.833-1.71-0.579-1.419-1.021-3.11-1.292-5.099-0.461-3.383 0.223-7.223 1.464-9.752 0.486-0.99 1.067-1.799 1.71-2.335 0.753-0.625 1.59-0.896 2.475-0.692 0.716 0.164 1.423 0.641 2.088 1.499 1.472 1.898 1.999 4.102 1.917 6.327-0.099 2.657-1.075 5.339-2.338 7.533-0.581 1.011-1.174 1.942-1.783 2.788-0.426 0.591-0.856 1.142-1.296 1.65 0.19 0.25 0.387 0.479 0.591 0.692 1.17 1.222 2.527 1.791 3.947 1.908 1.756 0.145 3.629-0.389 5.385-1.238 0.548-0.265 1.079-0.585 1.594-0.974-0.229-0.434-0.439-0.908-0.626-1.419-0.382-1.040-0.678-2.258-0.871-3.664-0.37-2.715 0.18-5.799 1.177-7.831 0.395-0.807 0.871-1.468 1.4-1.907 0.639-0.53 1.35-0.756 2.109-0.585 0.606 0.139 1.2 0.537 1.754 1.251 1.195 1.539 1.621 3.325 1.555 5.128-0.081 2.136-0.865 4.291-1.875 6.053-0.78 1.356-1.607 2.432-2.477 3.292l0.054 0.068c0.904 1.143 1.884 1.671 2.938 1.813 1.119 0.151 2.374-0.107 3.728-0.527 0.42-0.131 0.827-0.286 1.222-0.472-0.451-0.732-0.792-1.621-0.994-2.684-0.265-1.393 0.009-2.934 0.591-4.127 0.324-0.664 0.753-1.238 1.251-1.642 0.564-0.459 1.214-0.701 1.911-0.637 0.552 0.052 1.1 0.296 1.619 0.774 1.061 0.978 1.439 2.128 1.38 3.297-0.070 1.338-0.738 2.667-1.603 3.743-0.515 0.643-1.057 1.179-1.625 1.63 0.769 0.548 1.712 0.798 2.713 0.821 0.132 0.002 1.813 0.004 3.188 0.002 0.893-0.002 1.654-0.004 1.747-0.010 0.016-0.002 0.035-0.002 0.052-0.002v-0.002h13.255c0.457 0 0.827 0.37 0.827 0.827s-0.37 0.827-0.827 0.827l-13.255-0.002c-0.211 0.004-0.947 0.009-1.799 0.009-1.387 0.002-3.085 0-3.219-0.002-1.53-0.033-2.976-0.49-4.12-1.512l-0.010-0.009c-0.588 0.312-1.191 0.554-1.816 0.747-1.557 0.482-3.029 0.775-4.434 0.585-1.468-0.198-2.808-0.904-4.011-2.428l-0.012-0.016c-0.575 0.424-1.167 0.775-1.774 1.069-1.997 0.968-4.157 1.572-6.23 1.4-1.801-0.147-3.523-0.869-5.007-2.42-0.201-0.211-0.397-0.434-0.588-0.672-1.658 1.336-3.449 2.32-5.23 2.748-1.844 0.445-3.67 0.298-5.327-0.652-1.121-0.643-2.152-1.63-3.050-3.011-0.935 1.14-1.907 2.057-2.922 2.737-1.286 0.862-2.758 1.323-4.242 1.359-1.46 0.035-2.926-0.347-4.231-1.168-0.788-0.494-1.522-1.146-2.183-1.966-0.415 0.399-0.84 0.763-1.27 1.088-2.067 1.566-4.313 2.295-6.778 2.049-0.922-0.091-1.719-0.287-2.457-0.652-0.749-0.366-1.412-0.887-2.062-1.625-0.089-0.101-0.177-0.207-0.262-0.317-0.984 0.724-2.018 1.234-3.1 1.615-1.177 0.414-2.795 0.817-4.373 0.96-1.271 0.113-2.529 0.058-3.547-0.298-0.711-0.248-1.371-0.622-1.948-1.142-0.091 0.048-0.182 0.095-0.273 0.138-1.189 0.583-2.45 0.899-3.791 1.11-1.102 0.171-2.149 0.176-3.188 0.177-0.747 0.002-1.487 0.004-2.225 0.075-0.048 0.009-0.097 0.012-0.147 0.012l-11.374 0.009zM22.917 27.593c0.506-0.391 0.993-0.866 1.46-1.448 0.672-0.838 1.191-1.836 1.241-2.792 0.037-0.701-0.196-1.396-0.848-1.997-0.24-0.222-0.459-0.329-0.653-0.347h-0.004c-0.234-0.022-0.479 0.083-0.716 0.275-0.304 0.246-0.581 0.627-0.804 1.085-0.442 0.906-0.652 2.064-0.455 3.1 0.164 0.856 0.43 1.56 0.78 2.126v-0.002zM35.93 26.091c0.668-0.707 1.311-1.572 1.925-2.634 0.897-1.553 1.59-3.437 1.658-5.279 0.054-1.444-0.281-2.864-1.214-4.069-0.302-0.389-0.575-0.595-0.817-0.649-0.215-0.049-0.448 0.043-0.689 0.242-0.347 0.287-0.678 0.763-0.974 1.365-0.871 1.774-1.348 4.485-1.021 6.885 0.184 1.359 0.473 2.512 0.852 3.484 0.089 0.228 0.182 0.447 0.281 0.655l-0.001-0zM48.614 25.399c0.889-1.079 1.746-2.349 2.572-3.788 1.143-1.991 2.030-4.404 2.118-6.77 0.070-1.865-0.362-3.701-1.573-5.263-0.414-0.533-0.801-0.819-1.152-0.899-0.341-0.079-0.701 0.056-1.055 0.35-0.461 0.383-0.899 1.007-1.284 1.793-1.115 2.27-1.727 5.74-1.309 8.809 0.317 2.331 0.887 4.208 1.637 5.682l0.046 0.089v-0.003zM62.193 23.968c0.899-1.411 1.768-3.060 2.608-4.93 1.218-2.704 2.27-6.003 2.436-9.222 0.126-2.467-0.266-4.886-1.515-6.942-0.32-0.53-0.649-0.877-0.972-1.065-0.196-0.116-0.391-0.168-0.575-0.161-0.19 0.006-0.387 0.073-0.583 0.19-0.368 0.223-0.723 0.621-1.038 1.156-0.813 1.381-1.476 3.538-1.868 5.976-0.376 2.347-0.492 4.938-0.235 7.339 0.339 3.18 0.943 5.705 1.741 7.659l0.001-0.001zM75.832 25.402c0.298-0.362 0.591-0.744 0.881-1.148 0.579-0.804 1.143-1.689 1.694-2.645 1.143-1.991 2.030-4.404 2.118-6.77 0.070-1.865-0.362-3.702-1.573-5.263-0.414-0.533-0.8-0.819-1.152-0.899-0.341-0.079-0.701 0.056-1.055 0.35-0.461 0.383-0.899 1.007-1.284 1.793-1.115 2.27-1.727 5.74-1.308 8.809 0.25 1.838 0.658 3.395 1.189 4.698 0.155 0.381 0.32 0.738 0.494 1.075l-0.003-0.001zM89.545 26.109c0.67-0.711 1.311-1.582 1.923-2.649 0.896-1.557 1.588-3.445 1.656-5.29 0.054-1.441-0.28-2.859-1.212-4.061-0.302-0.389-0.575-0.595-0.817-0.649-0.215-0.049-0.448 0.043-0.689 0.242-0.347 0.287-0.678 0.763-0.974 1.365-0.871 1.774-1.348 4.485-1.021 6.886 0.174 1.278 0.441 2.378 0.786 3.316 0.11 0.298 0.225 0.577 0.347 0.84v0.001zM99.77 27.594c0.504-0.391 0.993-0.866 1.46-1.45 0.672-0.838 1.191-1.836 1.241-2.792 0.037-0.701-0.196-1.396-0.848-1.997-0.24-0.222-0.459-0.329-0.653-0.347h-0.004c-0.234-0.023-0.48 0.083-0.716 0.275-0.304 0.246-0.581 0.627-0.804 1.085-0.442 0.906-0.652 2.064-0.455 3.1 0.164 0.856 0.43 1.56 0.78 2.126z"></path>
</symbol>
<symbol id="icon-decore-3" viewBox="0 0 108 32">
<path d="M0.977 12.993c-0.427 0.006-0.777-0.333-0.785-0.76-0.006-0.427 0.333-0.777 0.76-0.785 4.172-0.068 7.265 2.613 10.034 5.013 0.777 0.674 1.529 1.326 2.245 1.863 0.626 0.469 1.159 0.866 1.696 1.124 0.5 0.24 1.041 0.372 1.743 0.353h0.041c0.682 0.018 1.211-0.11 1.704-0.343 0.533-0.252 1.056-0.636 1.667-1.090 0.742-0.551 1.51-1.218 2.307-1.907 2.767-2.398 5.856-5.077 10.022-5.013 4.166-0.062 7.256 2.617 10.022 5.013 0.797 0.69 1.564 1.357 2.307 1.907 0.613 0.454 1.136 0.84 1.667 1.090 0.492 0.233 1.024 0.36 1.708 0.343h0.041c0.7 0.018 1.239-0.114 1.739-0.353 0.537-0.258 1.070-0.655 1.697-1.124 0.716-0.537 1.468-1.189 2.245-1.863 2.767-2.398 5.856-5.077 10.022-5.013 4.166-0.062 7.256 2.617 10.022 5.013 0.777 0.674 1.529 1.326 2.245 1.863 0.626 0.469 1.159 0.866 1.697 1.124 0.5 0.24 1.041 0.372 1.743 0.353h0.041c0.682 0.018 1.211-0.11 1.704-0.343 0.533-0.252 1.056-0.636 1.667-1.090 0.742-0.551 1.51-1.218 2.306-1.907 2.767-2.398 5.856-5.077 10.022-5.013 4.166-0.062 7.256 2.617 10.022 5.013 0.797 0.69 1.564 1.357 2.306 1.907 0.343 0.254 0.415 0.738 0.161 1.081s-0.738 0.415-1.082 0.161c-0.791-0.587-1.58-1.271-2.398-1.981-2.559-2.217-5.418-4.697-8.998-4.639h-0.025c-3.58-0.058-6.439 2.419-8.998 4.639-0.818 0.709-1.607 1.394-2.398 1.981-0.682 0.506-1.268 0.936-1.929 1.246-0.696 0.328-1.44 0.512-2.386 0.488-0.963 0.023-1.718-0.166-2.427-0.506-0.674-0.324-1.266-0.763-1.956-1.281-0.776-0.582-1.539-1.243-2.33-1.928-2.559-2.217-5.418-4.697-8.998-4.639h-0.025c-3.58-0.058-6.439 2.419-8.998 4.639-0.791 0.686-1.555 1.348-2.33 1.928-0.692 0.518-1.281 0.957-1.956 1.281-0.707 0.339-1.464 0.529-2.427 0.506-0.946 0.023-1.69-0.161-2.386-0.488-0.661-0.312-1.246-0.741-1.928-1.246-0.791-0.587-1.58-1.271-2.398-1.981-2.559-2.217-5.418-4.697-8.998-4.639h-0.025c-3.58-0.058-6.439 2.419-8.998 4.639-0.818 0.709-1.607 1.394-2.398 1.981-0.682 0.506-1.268 0.936-1.929 1.246-0.696 0.328-1.44 0.512-2.386 0.488-0.963 0.023-1.718-0.166-2.427-0.506-0.674-0.324-1.266-0.763-1.956-1.281-0.776-0.582-1.539-1.243-2.33-1.928-2.559-2.217-5.418-4.697-8.998-4.639l0.005 0.003zM101.018 17.772c0.392 0.169 0.572 0.624 0.403 1.014-0.169 0.392-0.624 0.572-1.014 0.403-0.783-0.339-1.51-0.45-2.107-0.458-0.035 0.006-0.071 0.010-0.109 0.011-3.674 0.128-3.799 4.049-3.918 7.734-0.008 0.256-0.015 0.509-0.025 0.738 0.002 0.045-0.002 0.089-0.008 0.136-0.138 0.925-0.516 1.696-1.043 2.306-0.557 0.646-1.278 1.105-2.057 1.373-0.772 0.264-1.603 0.342-2.392 0.223-0.812-0.122-1.588-0.448-2.214-0.989-0.106-0.091-0.205-0.186-0.299-0.281-0.956-0.987-1.335-2.26-1.227-3.569 0.103-1.253 0.661-2.54 1.593-3.619 0.144-0.165 0.293-0.325 0.452-0.479 0.892-0.862 2.101-1.696 3.435-2.436 1.455-0.808 3.063-1.51 4.567-2.023 0.227-0.078 0.484-0.161 0.77-0.248 0.275-0.084 0.526-0.155 0.746-0.215 0.32-0.085 0.925-0.211 1.704-0.205 0.776 0.006 1.727 0.144 2.745 0.586l-0.004-0.002zM93.642 20.056c-0.82 0.35-1.636 0.748-2.406 1.175-1.221 0.678-2.319 1.43-3.107 2.195-0.128 0.124-0.248 0.252-0.36 0.382-0.713 0.827-1.14 1.799-1.218 2.735-0.071 0.88 0.173 1.723 0.791 2.363 0.064 0.066 0.131 0.13 0.201 0.19 0.394 0.339 0.893 0.547 1.427 0.626 0.551 0.081 1.132 0.029 1.671-0.157 0.529-0.183 1.016-0.488 1.386-0.919 0.338-0.392 0.579-0.89 0.674-1.494 0.010-0.256 0.018-0.491 0.025-0.723 0.074-2.27 0.148-4.614 0.913-6.374l0.002 0.002zM68.396 17.772c0.392 0.169 0.572 0.624 0.403 1.014-0.169 0.392-0.624 0.572-1.014 0.403-0.783-0.339-1.51-0.45-2.107-0.458-0.035 0.006-0.071 0.010-0.109 0.011-3.674 0.128-3.799 4.049-3.918 7.734-0.008 0.256-0.015 0.509-0.025 0.738 0.002 0.045-0.002 0.089-0.008 0.136-0.138 0.925-0.516 1.696-1.043 2.306-0.557 0.646-1.278 1.105-2.057 1.373-0.772 0.264-1.603 0.342-2.392 0.223-0.812-0.122-1.588-0.448-2.214-0.989-0.106-0.091-0.205-0.186-0.299-0.281-0.956-0.987-1.335-2.26-1.227-3.569 0.103-1.253 0.661-2.54 1.593-3.619 0.144-0.165 0.293-0.325 0.452-0.479 0.892-0.862 2.101-1.696 3.435-2.436 1.456-0.808 3.063-1.51 4.567-2.023 0.227-0.078 0.484-0.161 0.77-0.248 0.275-0.084 0.526-0.155 0.746-0.215 0.32-0.085 0.925-0.211 1.704-0.205 0.776 0.006 1.727 0.144 2.745 0.586l-0.004-0.002zM61.020 20.056c-0.82 0.35-1.636 0.748-2.406 1.175-1.221 0.678-2.319 1.43-3.107 2.195-0.128 0.124-0.248 0.252-0.36 0.382-0.713 0.827-1.14 1.799-1.218 2.735-0.071 0.88 0.173 1.723 0.791 2.363 0.064 0.066 0.131 0.13 0.201 0.19 0.394 0.339 0.893 0.547 1.427 0.626 0.551 0.081 1.132 0.029 1.671-0.157 0.529-0.183 1.016-0.488 1.386-0.919 0.338-0.392 0.579-0.89 0.674-1.494 0.010-0.256 0.018-0.491 0.025-0.723 0.074-2.27 0.148-4.614 0.913-6.374l0.002 0.002zM84.023 12.205c0.392-0.169 0.845 0.011 1.014 0.403s-0.011 0.845-0.403 1.014c-1.017 0.442-1.97 0.579-2.745 0.586-0.781 0.006-1.384-0.122-1.704-0.205-0.221-0.058-0.471-0.13-0.746-0.215-0.285-0.088-0.543-0.17-0.77-0.248-1.503-0.512-3.111-1.215-4.567-2.023-1.334-0.741-2.543-1.574-3.435-2.436-0.157-0.153-0.308-0.312-0.452-0.479-0.931-1.080-1.489-2.367-1.594-3.619-0.109-1.309 0.272-2.583 1.227-3.569 0.093-0.095 0.192-0.19 0.299-0.281 0.628-0.541 1.401-0.868 2.214-0.989 0.789-0.118 1.623-0.041 2.392 0.223 0.78 0.268 1.5 0.727 2.057 1.373 0.527 0.613 0.906 1.384 1.043 2.306 0.006 0.046 0.010 0.091 0.008 0.135 0.008 0.227 0.015 0.483 0.025 0.738 0.118 3.685 0.244 7.607 3.918 7.734 0.037 0.002 0.074 0.006 0.109 0.011 0.597-0.008 1.324-0.118 2.107-0.458l0.004-0.002zM74.853 10.165c0.768 0.427 1.584 0.822 2.406 1.175-0.766-1.758-0.841-4.104-0.913-6.374-0.008-0.234-0.015-0.467-0.025-0.723-0.095-0.604-0.337-1.103-0.674-1.494-0.37-0.428-0.855-0.737-1.386-0.919-0.539-0.184-1.12-0.239-1.671-0.157-0.535 0.079-1.034 0.287-1.427 0.626-0.070 0.060-0.138 0.124-0.201 0.19-0.618 0.639-0.865 1.483-0.791 2.363 0.078 0.936 0.504 1.907 1.218 2.735 0.113 0.13 0.233 0.258 0.36 0.382 0.789 0.766 1.886 1.516 3.107 2.195l-0.003 0.002zM52.53 12.205c0.392-0.169 0.845 0.011 1.014 0.403s-0.011 0.845-0.403 1.014c-1.017 0.442-1.97 0.579-2.745 0.586-0.781 0.006-1.384-0.122-1.704-0.205-0.221-0.058-0.471-0.13-0.746-0.215-0.285-0.088-0.543-0.17-0.77-0.248-1.503-0.512-3.111-1.215-4.567-2.023-1.334-0.741-2.543-1.574-3.435-2.436-0.157-0.153-0.308-0.312-0.452-0.479-0.931-1.080-1.489-2.367-1.593-3.619-0.109-1.309 0.272-2.583 1.227-3.569 0.093-0.095 0.192-0.19 0.299-0.281 0.628-0.541 1.401-0.868 2.214-0.989 0.789-0.118 1.623-0.041 2.392 0.223 0.78 0.268 1.5 0.727 2.057 1.373 0.527 0.613 0.906 1.384 1.043 2.306 0.006 0.046 0.010 0.091 0.008 0.135 0.008 0.227 0.015 0.483 0.025 0.738 0.118 3.685 0.244 7.607 3.918 7.734 0.037 0.002 0.074 0.006 0.109 0.011 0.597-0.008 1.324-0.118 2.107-0.458l0.004-0.002zM43.36 10.165c0.768 0.427 1.584 0.822 2.406 1.175-0.766-1.758-0.841-4.104-0.913-6.374-0.008-0.234-0.015-0.467-0.025-0.723-0.095-0.604-0.338-1.103-0.674-1.494-0.37-0.428-0.855-0.737-1.386-0.919-0.539-0.184-1.12-0.239-1.671-0.157-0.535 0.079-1.034 0.287-1.427 0.626-0.070 0.060-0.138 0.124-0.201 0.19-0.618 0.639-0.865 1.483-0.791 2.363 0.078 0.936 0.504 1.907 1.218 2.735 0.113 0.13 0.233 0.258 0.36 0.382 0.789 0.766 1.886 1.516 3.107 2.195l-0.002 0.002zM36.626 17.772c0.392 0.169 0.572 0.624 0.403 1.014-0.169 0.392-0.624 0.572-1.014 0.403-0.783-0.339-1.51-0.449-2.107-0.458-0.035 0.006-0.071 0.010-0.109 0.011-3.674 0.128-3.799 4.049-3.918 7.734-0.008 0.256-0.015 0.51-0.025 0.738 0.002 0.045-0.002 0.089-0.008 0.136-0.138 0.925-0.516 1.696-1.043 2.307-0.557 0.646-1.278 1.105-2.057 1.373-0.772 0.264-1.603 0.342-2.392 0.223-0.812-0.122-1.588-0.448-2.214-0.989-0.106-0.091-0.205-0.186-0.299-0.281-0.956-0.986-1.335-2.26-1.227-3.569 0.103-1.253 0.661-2.539 1.593-3.619 0.144-0.165 0.293-0.325 0.452-0.479 0.892-0.862 2.101-1.697 3.435-2.436 1.456-0.808 3.063-1.51 4.567-2.023 0.227-0.078 0.484-0.161 0.77-0.248 0.275-0.084 0.526-0.155 0.746-0.215 0.32-0.085 0.925-0.211 1.704-0.205 0.776 0.006 1.727 0.144 2.745 0.586l-0.004-0.002zM29.25 20.056c-0.82 0.351-1.636 0.748-2.406 1.175-1.221 0.678-2.319 1.43-3.107 2.195-0.128 0.124-0.248 0.252-0.36 0.382-0.713 0.828-1.14 1.799-1.218 2.735-0.071 0.88 0.173 1.723 0.791 2.363 0.064 0.066 0.131 0.13 0.201 0.19 0.393 0.339 0.893 0.547 1.427 0.626 0.551 0.081 1.132 0.029 1.671-0.157 0.529-0.183 1.016-0.488 1.386-0.919 0.338-0.392 0.579-0.89 0.674-1.494 0.010-0.256 0.018-0.491 0.025-0.723 0.074-2.27 0.148-4.614 0.913-6.374l0.002 0.002zM20.621 12.205c0.392-0.169 0.845 0.011 1.014 0.403s-0.011 0.845-0.403 1.014c-1.017 0.442-1.97 0.579-2.745 0.586-0.781 0.006-1.384-0.122-1.704-0.205-0.221-0.058-0.471-0.13-0.746-0.215-0.285-0.088-0.543-0.17-0.77-0.248-1.503-0.512-3.111-1.215-4.567-2.024-1.334-0.741-2.543-1.574-3.435-2.436-0.157-0.153-0.308-0.312-0.452-0.479-0.931-1.080-1.489-2.367-1.593-3.619-0.109-1.309 0.272-2.583 1.227-3.569 0.093-0.095 0.192-0.19 0.299-0.281 0.628-0.541 1.401-0.868 2.214-0.989 0.789-0.118 1.623-0.041 2.392 0.223 0.78 0.268 1.5 0.727 2.057 1.373 0.527 0.613 0.905 1.384 1.043 2.307 0.006 0.046 0.010 0.091 0.008 0.136 0.008 0.227 0.015 0.483 0.025 0.738 0.118 3.685 0.244 7.607 3.918 7.734 0.037 0.002 0.074 0.006 0.109 0.011 0.597-0.008 1.324-0.118 2.107-0.458l0.004-0.002zM11.452 10.165c0.768 0.427 1.584 0.822 2.406 1.175-0.766-1.758-0.841-4.104-0.913-6.374-0.008-0.234-0.015-0.467-0.025-0.723-0.095-0.604-0.337-1.103-0.674-1.494-0.37-0.428-0.855-0.737-1.386-0.919-0.539-0.184-1.12-0.239-1.671-0.157-0.535 0.079-1.034 0.287-1.427 0.626-0.070 0.060-0.138 0.124-0.201 0.19-0.618 0.639-0.865 1.483-0.791 2.363 0.078 0.936 0.504 1.907 1.218 2.735 0.113 0.13 0.233 0.258 0.36 0.382 0.789 0.766 1.886 1.516 3.107 2.195l-0.002 0.002z"></path>
</symbol>
<symbol id="icon-logo" viewBox="0 0 32 32">
<path d="M27.501 4.651c0.536 5.151-2.634 8.319-2.674 8.357-1.868 1.867-5.006 2.25-6.896 2.299 1.449-1.51 3.663-4.331 3.663-7.472 0.001-0.088 0.001-0.977-0.304-2.241 1.632-0.801 4.346-1.323 6.211-0.944zM20.25 7.824c0 2.641-1.949 5.131-3.252 6.502-0.043-2.093-0.472-5.652-2.693-7.873-0.062-0.063-0.691-0.691-1.8-1.368 0.587-1.721 2.136-4.008 3.726-5.062 4.023 3.264 4.021 7.746 4.019 7.801zM4.989 4.722c5.147-0.535 8.319 2.634 8.358 2.674 1.867 1.868 2.249 5.006 2.299 6.897-1.51-1.449-4.331-3.663-7.471-3.663-0.092 0.002-0.979 0.003-2.241 0.306-0.802-1.633-1.325-4.346-0.946-6.214zM0.362 15.993c3.275-4.036 7.761-4.013 7.801-4.019 2.641 0 5.131 1.949 6.502 3.251-2.093 0.043-5.652 0.472-7.873 2.693-0.063 0.061-0.692 0.69-1.369 1.799-1.721-0.587-4.008-2.136-5.061-3.725zM5.061 27.234c-0.536-5.151 2.634-8.319 2.674-8.358 1.867-1.868 5.006-2.251 6.896-2.299-1.449 1.51-3.663 4.331-3.663 7.472-0.001 0.088-0.001 0.977 0.304 2.241-1.631 0.802-4.346 1.324-6.211 0.944zM16.331 31.861c-4.021-3.263-4.020-7.746-4.019-7.801 0-2.641 1.949-5.131 3.252-6.502 0.043 2.093 0.472 5.652 2.693 7.873 0.061 0.063 0.686 0.693 1.799 1.372-0.589 1.721-2.137 4.006-3.725 5.058zM27.573 27.163c-5.149 0.536-8.319-2.635-8.358-2.674-1.867-1.867-2.249-5.006-2.299-6.896 1.51 1.449 4.331 3.663 7.471 3.663h0.037c0.197 0 1.041-0.019 2.205-0.302 0.801 1.633 1.323 4.344 0.944 6.21zM32.2 15.892c-3.275 4.036-7.759 4.026-7.801 4.019-2.643 0-5.136-1.953-6.506-3.256 2.089-0.041 5.648-0.459 7.878-2.689 0.063-0.061 0.692-0.69 1.369-1.799 1.721 0.587 4.008 2.136 5.061 3.725l0 0z"></path>
</symbol>
<symbol id="icon-s-facebook" viewBox="0 0 32 32">
<path d="M16 0.044c-8.704 0-15.76 7.056-15.76 15.76 0 7.866 5.763 14.387 13.298 15.569v-11.013h-4.002v-4.556h4.002v-3.472c0-3.95 2.353-6.132 5.953-6.132 1.724 0 3.528 0.308 3.528 0.308v3.879h-1.987c-1.958 0-2.568 1.215-2.568 2.461v2.956h4.371l-0.699 4.556h-3.672v11.013c7.535-1.182 13.298-7.702 13.298-15.569 0-8.704-7.056-15.76-15.76-15.76z"></path>
</symbol>
<symbol id="icon-s-instagram" viewBox="0 0 32 32">
<path d="M16.419 0.835c-4.232 0-4.763 0.018-6.425 0.094-1.659 0.076-2.791 0.339-3.782 0.724-1.025 0.398-1.894 0.93-2.76 1.797s-1.399 1.736-1.798 2.76c-0.386 0.991-0.649 2.124-0.724 3.782-0.074 1.662-0.094 2.194-0.094 6.426s0.019 4.761 0.094 6.424c0.076 1.659 0.339 2.791 0.724 3.782 0.398 1.025 0.931 1.894 1.797 2.76s1.735 1.401 2.759 1.799c0.991 0.385 2.124 0.648 3.783 0.724 1.662 0.076 2.193 0.094 6.425 0.094s4.762-0.018 6.424-0.094c1.659-0.076 2.793-0.338 3.784-0.724 1.025-0.398 1.893-0.932 2.759-1.799s1.399-1.736 1.799-2.76c0.383-0.991 0.646-2.124 0.724-3.782 0.075-1.662 0.094-2.192 0.094-6.424s-0.019-4.763-0.094-6.425c-0.078-1.659-0.341-2.791-0.724-3.782-0.399-1.025-0.932-1.894-1.799-2.76s-1.734-1.399-2.759-1.797c-0.993-0.385-2.126-0.648-3.785-0.724-1.662-0.076-2.191-0.094-6.425-0.094h0.005zM15.021 3.643c0.415-0.001 0.878 0 1.398 0 4.161 0 4.654 0.015 6.297 0.090 1.519 0.069 2.344 0.323 2.893 0.537 0.727 0.282 1.246 0.62 1.791 1.165s0.883 1.065 1.166 1.792c0.213 0.549 0.467 1.373 0.537 2.893 0.075 1.643 0.091 2.136 0.091 6.295s-0.016 4.652-0.091 6.295c-0.069 1.519-0.323 2.344-0.537 2.893-0.282 0.727-0.621 1.245-1.166 1.79s-1.063 0.883-1.791 1.166c-0.549 0.214-1.374 0.467-2.893 0.537-1.643 0.075-2.136 0.091-6.297 0.091s-4.654-0.016-6.297-0.091c-1.519-0.070-2.344-0.324-2.894-0.537-0.727-0.282-1.247-0.62-1.792-1.166s-0.883-1.064-1.166-1.791c-0.213-0.549-0.468-1.373-0.537-2.893-0.075-1.643-0.090-2.136-0.090-6.297s0.015-4.652 0.090-6.295c0.069-1.519 0.323-2.344 0.537-2.893 0.282-0.727 0.621-1.247 1.166-1.792s1.065-0.883 1.792-1.166c0.549-0.214 1.374-0.467 2.894-0.537 1.438-0.065 1.995-0.084 4.899-0.088v0.004zM24.737 6.23c-1.032 0-1.87 0.837-1.87 1.869s0.838 1.87 1.87 1.87c1.032 0 1.87-0.838 1.87-1.87s-0.838-1.87-1.87-1.87v0.001zM16.419 8.415c-4.419 0-8.002 3.583-8.002 8.002s3.583 8.001 8.002 8.001c4.419 0 8.001-3.581 8.001-8.001s-3.582-8.002-8.001-8.002h0zM16.419 11.223c2.869 0 5.194 2.325 5.194 5.194s-2.326 5.194-5.194 5.194c-2.869 0-5.194-2.326-5.194-5.194s2.325-5.194 5.194-5.194v0z"></path>
</symbol>
<symbol id="icon-s-twitter" viewBox="0 0 38 32">
<path d="M1.194 27.477c3.811 0.215 7.143-0.676 10.393-3.035-3.283-0.561-5.559-2.062-6.797-5.164 0.957-0.132 1.798 0.116 2.788-0.281-3.233-1.419-5.329-3.547-5.411-7.226 1.023 0.082 1.798 0.759 3.019 0.66-2.969-2.903-3.877-6.071-2.013-9.915 3.101 3.563 6.731 5.988 11.169 7.127 0.247 0.066 0.478 0.132 0.726 0.181 1.138 0.264 2.491 0.825 3.184 0.742 1.188-0.148 0-1.518 0.297-3.299 0.94-5.543 7.044-8.067 11.565-4.817 1.32 0.957 2.359 0.94 3.662 0.363 0.676-0.297 1.369-0.594 2.178-0.94-0.181 1.584-1.402 2.458-2.375 3.629 1.105 0.247 1.996-0.066 3.019-0.396-0.346 1.138-1.204 1.782-1.98 2.409-0.808 0.643-1.122 1.32-1.155 2.376-0.495 15.986-18.658 28.342-31.080 18.51-1.204-0.957-0.033 0-1.188-0.924z"></path>
</symbol>
</defs>
</svg>
