<svg width="23" height="23" viewBox="0 0 23 23" fill="none" xmlns="http://www.w3.org/2000/svg">
<path id="Subtract" d="M11.801 0.599976C8.75926 0.599976 8.37752 0.613276 7.18284 0.667643C5.9905 0.722244 5.17662 0.911012 4.46448 1.18798C3.72784 1.47405 3.10297 1.85672 2.48043 2.4795C1.85742 3.10203 1.47475 3.72691 1.18775 4.46332C0.910079 5.17569 0.721077 5.9898 0.66741 7.18168C0.613976 8.37636 0.599976 8.75833 0.599976 11.8001C0.599976 14.8419 0.613509 15.2224 0.667643 16.4171C0.722477 17.6095 0.911246 18.4233 1.18798 19.1355C1.47428 19.8721 1.85696 20.497 2.47973 21.1195C3.10203 21.7425 3.72691 22.1261 4.46308 22.4122C5.17569 22.6892 5.9898 22.8779 7.18191 22.9325C8.37659 22.9869 8.75809 23.0002 11.7996 23.0002C14.8416 23.0002 15.2222 22.9869 16.4169 22.9325C17.6092 22.8779 18.424 22.6892 19.1366 22.4122C19.873 22.1261 20.497 21.7425 21.1193 21.1195C21.7423 20.497 22.125 19.8721 22.412 19.1357C22.6873 18.4233 22.8763 17.6092 22.9323 16.4173C22.986 15.2227 23 14.8419 23 11.8001C23 8.75833 22.986 8.37659 22.9323 7.18191C22.8763 5.98956 22.6873 5.17569 22.412 4.46355C22.125 3.72691 21.7423 3.10203 21.1193 2.4795C20.4963 1.85649 19.8733 1.47382 19.1359 1.18798C18.4219 0.911012 17.6076 0.722244 16.4152 0.667643C15.2206 0.613276 14.8402 0.599976 11.7975 0.599976H11.801ZM10.7963 2.61833C11.0945 2.61786 11.4272 2.61833 11.801 2.61833C14.7915 2.61833 15.1459 2.62906 16.3268 2.68273C17.4188 2.73266 18.0115 2.91513 18.4063 3.06843C18.929 3.27144 19.3016 3.51411 19.6934 3.90611C20.0854 4.29811 20.328 4.67145 20.5315 5.19412C20.6848 5.58846 20.8675 6.18113 20.9172 7.27314C20.9709 8.45382 20.9826 8.80849 20.9826 11.7975C20.9826 14.7866 20.9709 15.1412 20.9172 16.3219C20.8673 17.4139 20.6848 18.0066 20.5315 18.4009C20.3285 18.9236 20.0854 19.2958 19.6934 19.6875C19.3014 20.0795 18.9292 20.3222 18.4063 20.5252C18.012 20.6792 17.4188 20.8612 16.3268 20.9112C15.1461 20.9648 14.7915 20.9765 11.801 20.9765C8.81036 20.9765 8.45592 20.9648 7.27525 20.9112C6.18323 20.8608 5.59056 20.6783 5.19552 20.525C4.67285 20.322 4.29951 20.0793 3.90751 19.6873C3.51551 19.2953 3.27284 18.9229 3.06937 18.4C2.91607 18.0057 2.73336 17.413 2.68366 16.321C2.63 15.1403 2.61926 14.7856 2.61926 11.7947C2.61926 8.80383 2.63 8.45102 2.68366 7.27035C2.7336 6.17833 2.91607 5.58566 3.06937 5.19086C3.27237 4.66818 3.51551 4.29485 3.90751 3.90284C4.29951 3.51084 4.67285 3.26817 5.19552 3.0647C5.59033 2.9107 6.18323 2.7287 7.27525 2.67853C8.30846 2.63186 8.70886 2.61786 10.7963 2.61553V2.61833ZM17.7796 4.47802C17.0375 4.47802 16.4355 5.07932 16.4355 5.82156C16.4355 6.56357 17.0375 7.16558 17.7796 7.16558C18.5216 7.16558 19.1236 6.56357 19.1236 5.82156C19.1236 5.07955 18.5216 4.47755 17.7796 4.47755V4.47802ZM11.801 6.04836C8.62463 6.04836 6.0493 8.62369 6.0493 11.8001C6.0493 14.9765 8.62463 17.5507 11.801 17.5507C14.9774 17.5507 17.5518 14.9765 17.5518 11.8001C17.5518 8.62369 14.9772 6.04836 11.8008 6.04836H11.801ZM11.801 8.06672C13.8628 8.06672 15.5344 9.7381 15.5344 11.8001C15.5344 13.8618 13.8628 15.5335 11.801 15.5335C9.73904 15.5335 8.06765 13.8618 8.06765 11.8001C8.06765 9.7381 9.73904 8.06672 11.801 8.06672V8.06672Z" fill="white"/>
</svg>
